#!OML:ASF H:\Male1\Project 1\Capture day 1\Session 1\Male1.ASF
:FULLY-SPECIFIED
:DEGREES
537
root 37.6234 15.2503 -0.605461 946.156 265.528 491.234
lowerback 8.10964 1.35609 3.54719
upperback 5.50087 1.84062 0.263683
thorax 1.26138 0.934212 -1.84206
lowerneck -11.6716 3.33626 4.77134
upperneck 7.70507 4.14182 -4.19081
head 4.39422 1.93553 -1.76412
rclavicle -2.3556e-014 -9.54166e-015
rhumerus -29.4817 14.0701 -88.7865
rradius 38.8539
rwrist -19.2368
rhand -20.9319 0.155218
rfingers 7.12502
rthumb 5.44005 -29.755
lclavicle -2.3556e-014 -9.54166e-015
lhumerus -37.7015 9.09961 77.0412
lradius 24.4158
lwrist -9.11511
lhand -17.0841 15.3224
lfingers 7.12502
lthumb 9.15415 45.1037
rfemur 24.7183 8.38004 34.6786
rtibia -3.18055e-014
rfoot -17.6339 -23.3116
rtoes -9.78671
lfemur -30.6747 -11.5829 -16.5556
ltibia 32.9034
lfoot -12.7743 18.1704
ltoes -4.32609
538
root 37.3504 15.2384 -0.590551 946.575 265.924 490.782
lowerback 8.06358 1.40182 3.15857
upperback 5.56178 1.87211 0.217623
thorax 1.33816 0.941357 -1.67191
lowerneck -11.6093 3.49817 4.91056
upperneck 7.56049 4.36008 -4.42578
head 4.358 2.03411 -1.84399
rclavicle -3.67752e-015 1.98785e-015
rhumerus -29.4305 14.5175 -89.0073
rradius 39.1638
rwrist -19.2953
rhand -20.9653 -0.0201866
rfingers 7.12502
rthumb 5.40786 -29.9312
lclavicle -3.67752e-015 1.98785e-015
lhumerus -38.0778 9.85677 76.3462
lradius 24.0226
lwrist -9.68857
lhand -17.0401 15.3476
lfingers 7.12502
lthumb 9.19665 45.1271
rfemur 25.8472 7.87457 34.2382
rtibia 3.18055e-014
rfoot -17.2976 -22.6415
rtoes -10.6869
lfemur -30.8687 -15.0294 -15.4711
ltibia 30.5722
lfoot -15.8107 20.9078
ltoes -3.78575
539
root 37.0786 15.2167 -0.574039 951.816 266.051 485.474
lowerback 8.07865 1.52311 3.25709
upperback 5.59796 2.03651 0.179694
thorax 1.38202 1.02701 -1.77626
lowerneck -11.5031 3.49454 5.16789
upperneck 7.52467 4.32899 -4.52912
head 4.33613 2.022 -1.92127
rclavicle -9.49197e-015 1.0138e-014
rhumerus -29.4522 14.4917 -89.2846
rradius 39.3064
rwrist -19.1713
rhand -20.9489 0.340018
rfingers 7.12502
rthumb 5.42372 -29.5706
lclavicle -9.49197e-015 1.0138e-014
lhumerus -38.2428 10.0475 75.7952
lradius 23.5844
lwrist -10.1703
lhand -17.1906 15.1591
lfingers 7.12502
lthumb 9.05143 44.9449
rfemur 26.9492 7.42879 34.2127
rtibia 1.11319e-013
rfoot -16.6834 -22.0544
rtoes -13.3735
lfemur -31.199 -18.1275 -13.9321
ltibia 29.2453
lfoot -17.4077 23.0574
ltoes -0.173092
540
root 36.8032 15.1922 -0.554129 957.95 266.026 479.305
lowerback 7.59468 1.73989 3.20421
upperback 5.91827 2.28385 0.38376
thorax 1.98527 1.15315 -1.529
lowerneck -11.4755 3.46289 5.45235
upperneck 7.13505 4.26651 -4.87916
head 4.22308 1.98022 -2.08206
rclavicle 2.3556e-014 4.37326e-015
rhumerus -29.1593 14.2868 -89.0472
rradius 39.5342
rwrist -19.3838
rhand -20.6799 0.420898
rfingers 7.12502
rthumb 5.6834 -29.4829
lclavicle 2.3556e-014 4.37326e-015
lhumerus -37.7257 10.5768 75.6026
lradius 22.8035
lwrist -11.1015
lhand -17.2927 15.1339
lfingers 7.12502
lthumb 8.95286 44.9239
rfemur 28.009 6.97369 34.269
rtibia -6.04305e-014
rfoot -15.8281 -21.5576
rtoes -17.349
lfemur -31.3313 -18.9414 -13.0665
ltibia 28.5059
lfoot -18.4471 23.2318
ltoes 2.89623
541
root 36.522 15.1842 -0.529819 962.201 266.092 475.082
lowerback 8.07395 1.67143 3.36077
upperback 5.58477 2.23837 0.267056
thorax 1.38319 1.12864 -1.75679
lowerneck -11.5422 3.46534 5.06395
upperneck 7.46343 4.28186 -4.32742
head 4.31446 2.0072 -1.84556
rclavicle 3.19546e-014 -2.38542e-015
rhumerus -29.9549 14.2555 -89.5792
rradius 39.7522
rwrist -19.3926
rhand -20.6415 0.535746
rfingers 7.12502
rthumb 5.7205 -29.367
lclavicle 3.19546e-014 -2.38542e-015
lhumerus -38.163 11.2731 74.6868
lradius 22.0609
lwrist -12.1255
lhand -17.0693 15.2572
lfingers 7.12502
lthumb 9.16851 45.0379
rfemur 29.0054 6.51931 34.0499
rtibia -3.81667e-014
rfoot -14.8029 -20.9881
rtoes -19.8016
lfemur -30.9735 -18.339 -13.0715
ltibia 28.3854
lfoot -17.9795 21.6263
ltoes 1.17961
542
root 36.2317 15.1587 -0.499894 968.214 266.101 469.081
lowerback 7.22702 2.05239 3.05118
upperback 5.99271 2.6729 0.577879
thorax 2.26797 1.34296 -1.24785
lowerneck -11.4457 3.22475 5.15296
upperneck 7.0483 3.9668 -4.6223
head 4.16449 1.83939 -1.9777
rclavicle 2.3879e-014 5.96354e-015
rhumerus -29.8659 13.5775 -88.9972
rradius 39.8165
rwrist -19.4473
rhand -20.4775 0.493249
rfingers 7.12502
rthumb 5.87879 -29.4052
lclavicle 2.3879e-014 5.96354e-015
lhumerus -37.197 12.2024 74.6319
lradius 20.9433
lwrist -13.9402
lhand -16.4747 15.8238
lfingers 7.12502
lthumb 9.74215 45.5785
rfemur 30.06 6.16915 33.8667
rtibia 3.18055e-015
rfoot -13.4317 -20.3238
rtoes -20.9994
lfemur -30.2436 -17.3896 -13.2315
ltibia 28.6027
lfoot -16.5146 19.2606
ltoes -4.71663
543
root 35.9279 15.1436 -0.464563 974.356 266.095 463.158
lowerback 7.67263 1.92178 3.49723
upperback 5.41959 2.57755 0.294526
thorax 1.45666 1.30529 -1.81408
lowerneck -11.433 3.36684 5.00584
upperneck 7.45974 4.13932 -4.08786
head 4.28217 1.95076 -1.77449
rclavicle -9.83984e-015 -3.97569e-016
rhumerus -31.0258 13.4211 -89.8264
rradius 39.708
rwrist -19.2021
rhand -20.384 0.309515
rfingers 7.12502
rthumb 5.96907 -29.5864
lclavicle -9.83984e-015 -3.97569e-016
lhumerus -37.8152 13.1933 73.2959
lradius 20.3382
lwrist -15.3976
lhand -16.0743 13.1386
lfingers 7.12502
lthumb 10.1285 42.8748
rfemur 30.9181 5.9065 33.5605
rtibia 5.40694e-014
rfoot -11.494 -19.5982
rtoes -21.9786
lfemur -29.5927 -15.9222 -13.6852
ltibia 29.0353
lfoot -14.4469 17.5632
ltoes -9.03474
544
root 35.615 15.1482 -0.42437 978.739 266.362 458.935
lowerback 6.74416 2.20548 3.03448
upperback 5.67846 2.88835 0.370319
thorax 2.22662 1.45936 -1.4497
lowerneck -11.3479 3.26901 5.21114
upperneck 7.05017 3.98975 -4.29321
head 4.14422 1.87244 -1.88497
rclavicle 2.54941e-014 9.93923e-016
rhumerus -31.2175 12.5602 -89.4267
rradius 39.6451
rwrist -19.4226
rhand -19.8959 -0.463272
rfingers 7.12502
rthumb 6.44031 -30.3454
lclavicle 2.54941e-014 9.93923e-016
lhumerus -37.0867 14.303 73.0955
lradius 19.7196
lwrist -16.9841
lhand -15.465 12.7947
lfingers 7.12502
lthumb 10.7163 42.5014
rfemur 31.8177 5.63845 32.8036
rtibia 4.45278e-014
rfoot -9.03222 -18.7065
rtoes -22.6323
lfemur -28.7531 -14.4732 -14.6618
ltibia 29.4788
lfoot -13.5313 16.1454
ltoes -8.72633
545
root 35.2936 15.1669 -0.382139 982.543 266.733 455.186
lowerback 6.35969 2.32076 2.70747
upperback 5.70414 3.02024 0.236421
thorax 2.461 1.52221 -1.39314
lowerneck -11.3027 3.14885 5.07655
upperneck 7.01402 3.82259 -4.0076
head 4.10927 1.80301 -1.78822
rclavicle 1.08338e-014 -1.03368e-014
rhumerus -31.8253 11.7808 -89.4647
rradius 39.2973
rwrist -19.3391
rhand -19.5204 -0.381192
rfingers 7.12502
rthumb 6.80284 -30.2519
lclavicle 1.08338e-014 -1.03368e-014
lhumerus -36.7414 15.0408 72.8406
lradius 19.3855
lwrist -17.674
lhand -15.29 13.0285
lfingers 7.12502
lthumb 10.8851 42.7264
rfemur 32.7582 5.3427 31.8334
rtibia 9.54166e-015
rfoot -6.23526 -17.6329
rtoes -23.7911
lfemur -27.8824 -13.8576 -15.5754
ltibia 29.9679
lfoot -12.1809 15.7351
ltoes -8.07192
546
root 34.9668 15.1805 -0.33997 984.657 267.068 453.244
lowerback 6.56688 2.17157 2.69392
upperback 5.23502 2.8585 -0.130764
thorax 1.8689 1.44428 -1.77788
lowerneck -11.161 3.21537 5.01535
upperneck 7.30611 3.89915 -3.64622
head 4.17053 1.86129 -1.66187
rclavicle 5.93372e-014 -3.37934e-015
rhumerus -32.9744 11.1482 -90.0676
rradius 38.7086
rwrist -19.2183
rhand -18.9112 1.48961
rfingers 7.12502
rthumb 7.39086 -28.3613
lclavicle 5.93372e-014 -3.37934e-015
lhumerus -37.0793 15.5437 72.1811
lradius 19.2256
lwrist -17.745
lhand -15.5051 13.4261
lfingers 7.12502
lthumb 10.6775 43.1348
rfemur 33.5185 4.95084 30.8303
rtibia 1.90833e-014
rfoot -3.03142 -16.3543
rtoes -24.8532
lfemur -27.2265 -13.7151 -16.3023
ltibia 30.4161
lfoot -11.4686 15.0577
ltoes -7.21137
547
root 34.6384 15.209 -0.298262 983.376 267.402 454.802
lowerback 5.4048 2.364 1.9833
upperback 5.43313 3.05939 -0.0196971
thorax 2.68245 1.53271 -1.21936
lowerneck -10.8959 3.0076 5.13561
upperneck 6.93362 3.62756 -3.8562
head 4.00757 1.72149 -1.77029
rclavicle -1.79403e-014 1.98785e-015
rhumerus -33.2058 10.1515 -89.5558
rradius 38.0029
rwrist -19.3673
rhand -18.8108 2.49939
rfingers 7.12502
rthumb 7.48782 -27.3481
lclavicle -1.79403e-014 1.98785e-015
lhumerus -36.1194 16.3096 72.6131
lradius 18.7427
lwrist -18.414
lhand -16.746 11.0051
lfingers 7.12502
lthumb 9.4804 40.7719
rfemur 33.4216 4.39917 29.7855
rtibia 1.26791
rfoot 0.0658077 -15.2934
rtoes -24.6876
lfemur -26.4354 -13.2408 -17.1908
ltibia 30.8466
lfoot -10.9302 13.3801
ltoes -8.13935
548
root 34.3136 15.2364 -0.255811 983.533 267.625 454.874
lowerback 5.18059 2.31265 1.74276
upperback 5.14537 2.99875 -0.136156
thorax 2.49825 1.49943 -1.2011
lowerneck -10.8925 3.00583 5.0558
upperneck 7.31891 3.62755 -3.66973
head 4.12 1.73019 -1.69849
rclavicle -2.93704e-014 5.56597e-015
rhumerus -34.0288 9.45494 -89.62
rradius 37.2535
rwrist -19.3198
rhand -19.914 -0.733816
rfingers 7.12502
rthumb 6.42284 -30.6164
lclavicle -2.93704e-014 5.56597e-015
lhumerus -35.896 16.3455 72.8607
lradius 18.6932
lwrist -18.1336
lhand -17.5902 10.8082
lfingers 7.12502
lthumb 8.66581 40.6103
rfemur 25.9971 3.80217 28.7387
rtibia 15.7875
rfoot -1.83073 -14.3546
rtoes -27.4522
lfemur -25.5566 -12.9173 -17.9251
ltibia 31.2016
lfoot -10.6822 11.9995
ltoes -3.71401
549
root 33.9986 15.2614 -0.212669 982.148 267.806 456.455
lowerback 5.12392 2.20927 1.58216
upperback 4.85036 2.87175 -0.261359
thorax 2.21687 1.43447 -1.24175
lowerneck -11.14 2.99601 5.06186
upperneck 8.02849 3.59117 -3.43732
head 4.37255 1.72451 -1.62455
rclavicle 5.89894e-014 -1.03368e-014
rhumerus -34.717 8.28859 -89.3347
rradius 36.2628
rwrist -19.2366
rhand -18.2971 0.832811
rfingers 7.12502
rthumb 7.98359 -28.9964
lclavicle 5.89894e-014 -1.03368e-014
lhumerus -35.527 15.481 73.7096
lradius 19.0366
lwrist -16.8386
lhand -18.1499 11.6415
lfingers 7.12502
lthumb 8.12562 41.4653
rfemur 21.8408 2.77216 27.5057
rtibia 24.0139
rfoot 0.728562 -12.6983
rtoes -23.0647
lfemur -24.5732 -12.8005 -18.6032
ltibia 31.4157
lfoot -10.8237 11.5958
ltoes -1.17505
550
root 33.6912 15.2875 -0.171912 982.304 268.307 456.347
lowerback 5.08042 2.16424 1.00723
upperback 4.75204 2.79911 -0.390233
thorax 2.11361 1.38438 -1.0521
lowerneck -11.3339 2.99633 5.10444
upperneck 8.43222 3.58345 -3.44554
head 4.52936 1.72039 -1.63068
rclavicle -2.34069e-014 4.77083e-015
rhumerus -35.4249 7.89851 -89.2958
rradius 36.1827
rwrist -18.5975
rhand -17.9461 -0.617138
rfingers 7.12502
rthumb 8.32235 -30.4332
lclavicle -2.34069e-014 4.77083e-015
lhumerus -34.7472 14.0136 75.1845
lradius 19.5729
lwrist -14.9798
lhand -18.3792 11.3717
lfingers 7.12502
lthumb 7.90434 41.2039
rfemur 18.0966 1.99426 26.1172
rtibia 31.5449
rfoot 2.69124 -11.6187
rtoes -22.6086
lfemur -23.1752 -12.5806 -19.6362
ltibia 31.2553
lfoot -11.0881 11.6183
ltoes -0.32601
551
root 33.3918 15.3105 -0.135848 981.891 269.341 456.681
lowerback 4.87363 2.23443 -0.273297
upperback 4.9322 2.84994 -0.5428
thorax 2.35983 1.37332 -0.483964
lowerneck -11.4 2.95203 5.1801
upperneck 8.39922 3.53456 -3.685
head 4.5337 1.6836 -1.72017
rclavicle 2.7482e-014 -9.93923e-015
rhumerus -35.8195 7.65967 -89.1004
rradius 36.1373
rwrist -18.5434
rhand -17.5337 -1.63576
rfingers 7.12502
rthumb 8.72032 -31.4356
lclavicle 2.7482e-014 -9.93923e-015
lhumerus -33.4463 12.221 77.0587
lradius 20.0201
lwrist -13.1593
lhand -18.5118 10.0121
lfingers 7.12502
lthumb 7.77635 39.8491
rfemur 14.613 1.46879 24.3484
rtibia 38.6107
rfoot 4.60989 -10.8352
rtoes -19.1292
lfemur -21.457 -12.2278 -21.255
ltibia 30.7308
lfoot -11.2661 11.6177
ltoes 0.14095
